<?xml version="1.0" encoding="UTF-8" standalone="no"?>
<svg
   xmlns:dc="http://purl.org/dc/elements/1.1/"
   xmlns:cc="http://creativecommons.org/ns#"
   xmlns:rdf="http://www.w3.org/1999/02/22-rdf-syntax-ns#"
   xmlns:svg="http://www.w3.org/2000/svg"
   xmlns="http://www.w3.org/2000/svg"
   xmlns:sodipodi="http://sodipodi.sourceforge.net/DTD/sodipodi-0.dtd"
   xmlns:inkscape="http://www.inkscape.org/namespaces/inkscape"
   inkscape:version="1.0 (4035a4fb49, 2020-05-01)"
   sodipodi:docname="back-svgrepo-com-white.svg"
   xml:space="preserve"
   style="enable-background:new 0 0 384.97 384.97;"
   viewBox="0 0 384.97 384.97"
   y="0px"
   x="0px"
   id="Capa_1"
   version="1.1"><metadata
   id="metadata943"><rdf:RDF><cc:Work
       rdf:about=""><dc:format>image/svg+xml</dc:format><dc:type
         rdf:resource="http://purl.org/dc/dcmitype/StillImage" /><dc:title></dc:title></cc:Work></rdf:RDF></metadata><defs
   id="defs941" /><sodipodi:namedview
   inkscape:current-layer="Capa_1"
   inkscape:window-maximized="1"
   inkscape:window-y="-9"
   inkscape:window-x="-9"
   inkscape:cy="192.485"
   inkscape:cx="192.485"
   inkscape:zoom="1.9092397"
   showgrid="false"
   id="namedview939"
   inkscape:window-height="1001"
   inkscape:window-width="1920"
   inkscape:pageshadow="2"
   inkscape:pageopacity="0"
   guidetolerance="10"
   gridtolerance="10"
   objecttolerance="10"
   borderopacity="1"
   bordercolor="#666666"
   pagecolor="#ffffff" />
<g
   id="g906">
	<g
   id="Chevron_Left_Circle">
		<path
   style="stroke:#ffffff;stroke-opacity:1;stroke-width:1.0015748;stroke-miterlimit:4;stroke-dasharray:none;fill:#ffffff;fill-opacity:1"
   id="path889"
   d="M192.485,0C86.185,0,0,86.185,0,192.485C0,298.797,86.173,384.97,192.485,384.97S384.97,298.797,384.97,192.485    C384.97,86.185,298.797,0,192.485,0z M192.485,361.282c-92.874,0-168.424-75.923-168.424-168.797S99.611,24.061,192.485,24.061    s168.424,75.55,168.424,168.424S285.359,361.282,192.485,361.282z" />
		<path
   style="fill:#ffffff;fill-opacity:1"
   id="path891"
   d="M235.878,99.876c-4.704-4.74-12.319-4.74-17.011,0l-83.009,84.2c-4.572,4.62-4.584,12.56,0,17.191l82.997,84.2    c4.704,4.74,12.319,4.74,17.011,0c4.704-4.752,4.704-12.439,0-17.191l-74.528-75.61l74.54-75.61    C240.57,112.315,240.57,104.628,235.878,99.876z" />
	</g>
	<g
   id="g894">
	</g>
	<g
   id="g896">
	</g>
	<g
   id="g898">
	</g>
	<g
   id="g900">
	</g>
	<g
   id="g902">
	</g>
	<g
   id="g904">
	</g>
</g>
<g
   id="g908">
</g>
<g
   id="g910">
</g>
<g
   id="g912">
</g>
<g
   id="g914">
</g>
<g
   id="g916">
</g>
<g
   id="g918">
</g>
<g
   id="g920">
</g>
<g
   id="g922">
</g>
<g
   id="g924">
</g>
<g
   id="g926">
</g>
<g
   id="g928">
</g>
<g
   id="g930">
</g>
<g
   id="g932">
</g>
<g
   id="g934">
</g>
<g
   id="g936">
</g>
</svg>
